<svg width="63" height="18" viewBox="0 0 63 18" fill="none" xmlns="http://www.w3.org/2000/svg">
<path d="M11.1174 6.26494C11.1174 7.62078 10.6403 8.75065 9.686 9.65455C8.74762 10.5429 7.30824 10.987 5.36786 10.987H2.171V17.7896H0V1.4961H5.36786C7.24462 1.4961 8.66809 1.94026 9.63829 2.82857C10.6244 3.71688 11.1174 4.86234 11.1174 6.26494ZM5.36786 9.23377C6.57662 9.23377 7.46729 8.97662 8.03986 8.46234C8.61243 7.94805 8.89871 7.21559 8.89871 6.26494C8.89871 4.25455 7.72176 3.24935 5.36786 3.24935H2.171V9.23377H5.36786Z" fill="#F1DEDD"/>
<path d="M15.9867 0.49091V17.7896H13.8157V0.49091H15.9867Z" fill="#F1DEDD"/>
<path d="M18.8757 11.3377C18.8757 10.0286 19.146 8.88312 19.6868 7.9013C20.2276 6.9039 20.9671 6.13247 21.9055 5.58701C22.8598 5.04156 23.9175 4.76883 25.0785 4.76883C26.2237 4.76883 27.2177 5.01039 28.0607 5.49351C28.9036 5.97662 29.5318 6.58442 29.9454 7.31688V4.97922H32.1402V17.7896H29.9454V15.4052C29.5159 16.1532 28.8718 16.7766 28.0129 17.2753C27.17 17.7584 26.1839 18 25.0547 18C23.8936 18 22.8439 17.7195 21.9055 17.1584C20.9671 16.5974 20.2276 15.8104 19.6868 14.7974C19.146 13.7844 18.8757 12.6312 18.8757 11.3377ZM29.9454 11.361C29.9454 10.3948 29.7466 9.55325 29.3489 8.83636C28.9513 8.11948 28.4106 7.57403 27.7267 7.2C27.0587 6.81039 26.3191 6.61558 25.5079 6.61558C24.6968 6.61558 23.9572 6.8026 23.2892 7.17662C22.6212 7.55065 22.0884 8.0961 21.6908 8.81299C21.2932 9.52987 21.0944 10.3714 21.0944 11.3377C21.0944 12.3195 21.2932 13.1766 21.6908 13.9091C22.0884 14.626 22.6212 15.1792 23.2892 15.5688C23.9572 15.9429 24.6968 16.1299 25.5079 16.1299C26.3191 16.1299 27.0587 15.9429 27.7267 15.5688C28.4106 15.1792 28.9513 14.626 29.3489 13.9091C29.7466 13.1766 29.9454 12.3273 29.9454 11.361Z" fill="#F1DEDD"/>
<path d="M42.1789 4.74545C43.7693 4.74545 45.0576 5.22078 46.0437 6.17143C47.0298 7.10649 47.5229 8.46234 47.5229 10.239V17.7896H45.3757V10.5429C45.3757 9.26494 45.0497 8.29091 44.3976 7.62078C43.7455 6.93506 42.8548 6.59221 41.7256 6.59221C40.5804 6.59221 39.6659 6.94286 38.982 7.64416C38.314 8.34546 37.98 9.36623 37.98 10.7065V17.7896H35.809V4.97922H37.98V6.8026C38.4094 6.14805 38.99 5.64156 39.7216 5.28312C40.4691 4.92468 41.2882 4.74545 42.1789 4.74545Z" fill="#F1DEDD"/>
<path d="M52.1905 2.8987C51.777 2.8987 51.4271 2.75844 51.1408 2.47792C50.8545 2.1974 50.7113 1.85455 50.7113 1.44935C50.7113 1.04416 50.8545 0.701299 51.1408 0.420779C51.4271 0.14026 51.777 0 52.1905 0C52.5881 0 52.9221 0.14026 53.1925 0.420779C53.4788 0.701299 53.6219 1.04416 53.6219 1.44935C53.6219 1.85455 53.4788 2.1974 53.1925 2.47792C52.9221 2.75844 52.5881 2.8987 52.1905 2.8987ZM53.2402 4.97922V17.7896H51.0692V4.97922H53.2402Z" fill="#BD2A2E"/>
<path d="M59.5884 6.73247V14.2831C59.5884 14.9065 59.7236 15.3506 59.994 15.6156C60.2644 15.8649 60.7336 15.9896 61.4016 15.9896H63V17.7896H61.0437C59.835 17.7896 58.9284 17.5169 58.324 16.9714C57.7196 16.426 57.4174 15.5299 57.4174 14.2831V6.73247H55.7236V4.97922H57.4174V1.75325H59.5884V4.97922H63V6.73247H59.5884Z" fill="#BD2A2E"/>
</svg>
